<svg width="114" height="24" viewBox="0 0 114 24" fill="none" xmlns="http://www.w3.org/2000/svg">
<g clip-path="url(#clip0)">
<path d="M41.9232 12.4621C41.9232 15.3726 39.6529 16.7108 37.2031 16.7108H35.3812V19.7842H32.0688V8.21576H37.2031C39.6598 8.21576 41.9232 9.57001 41.9232 12.4621ZM38.4728 12.4621C38.4728 11.3718 38.0266 10.9587 37.0328 10.9587H35.3766V13.9679H37.0328C38.0312 13.9679 38.4774 13.5708 38.4774 12.4621H38.4728Z" fill="#0C1014"/>
<path d="M53.7144 19.7842H49.5739L46.7262 16.4468V19.7842H43.4115V8.21576H48.2168C50.7172 8.21576 52.6724 9.88446 52.6724 12.0834C52.6724 13.9839 51.7523 15.0421 50.0708 15.7559L53.7144 19.7842ZM49.2588 12.3634C49.2588 11.4453 48.7987 10.9587 47.8786 10.9587H46.7285V13.9679H47.7705C48.7964 13.9679 49.2588 13.5868 49.2588 12.3634Z" fill="#0C1014"/>
<path d="M58.0872 15.7031V19.7842H54.7748V8.21576H62.9063V11.0252H58.0872V12.8936H62.276V15.7031H58.0872Z" fill="#0C1014"/>
<path d="M67.4608 14.0092C67.4608 15.9097 68.7857 17.0344 70.4925 17.0344C71.6581 17.0533 72.813 16.8101 73.8716 16.3229V19.3803C72.7914 19.7978 71.6418 20.0081 70.4833 20C66.8213 20 63.8907 17.404 63.8907 14C63.8907 10.596 66.6074 8 70.366 8C71.5689 7.98687 72.7608 8.22943 73.8624 8.71156V11.7689C72.7655 11.263 71.5743 10.9924 70.366 10.9748C68.5695 10.9748 67.4608 12.1155 67.4608 14.0092Z" fill="#0C1014"/>
<path d="M84.8187 8.21576V11.14H81.5385V19.7842H78.2261V11.14H74.9459V8.21576H84.8187Z" fill="#0C1014"/>
<path d="M93.2561 15.7031V19.7842H89.9437V8.21576H98.0867V11.0252H93.2561V12.8936H97.4472V15.7031H93.2561Z" fill="#0C1014"/>
<path d="M102.802 8.21576V19.7842H99.4899V8.21576H102.802Z" fill="#0C1014"/>
<path d="M114 8.21576V11.14H110.72V19.7842H107.407V11.14H104.127V8.21576H114Z" fill="#0C1014"/>
</g>
<g clip-path="url(#clip1)">
<path d="M9.01944 5C9.01944 4.20435 9.33619 3.44129 9.90001 2.87868C10.4638 2.31607 11.2285 2 12.0259 2C12.8233 2 13.588 2.31607 14.1518 2.87868C14.7156 3.44129 15.0324 4.20435 15.0324 5V6H17.0367V5C17.0367 3.67392 16.5087 2.40215 15.569 1.46447C14.6293 0.526784 13.3548 0 12.0259 0C10.697 0 9.42246 0.526784 8.48275 1.46447C7.54305 2.40215 7.01514 3.67392 7.01514 5V6H9.01944V5Z" fill="#0C1014"/>
<path d="M24.0438 22.876L22.0395 6.876C22.0092 6.63415 21.8915 6.41166 21.7083 6.25034C21.5252 6.08903 21.2894 6.00001 21.0451 6H17.0365V10H15.0322V6H9.0193V10H7.015V6H3.00639C2.76213 6.00001 2.52628 6.08903 2.34317 6.25034C2.16006 6.41166 2.04229 6.63415 2.012 6.876L0.00769615 22.876C-0.00829673 23.0164 0.00541426 23.1586 0.0479428 23.2934C0.0904714 23.4282 0.160871 23.5525 0.254591 23.6585C0.348311 23.7644 0.463265 23.8496 0.592023 23.9084C0.720782 23.9672 0.860478 23.9984 1.00208 24H23.0494C23.191 23.9984 23.3307 23.9672 23.4595 23.9084C23.5882 23.8496 23.7032 23.7644 23.7969 23.6585C23.8906 23.5525 23.961 23.4282 24.0036 23.2934C24.0461 23.1586 24.0598 23.0164 24.0438 22.876ZM16.0344 15.75C15.6091 17.2351 12.0258 19.75 12.0258 19.75C12.0258 19.75 8.44306 17.2351 8.01715 15.75C7.26629 13.1277 10.524 12.2515 12.0258 13.75C13.5275 12.2515 16.7852 13.1277 16.0344 15.75Z" fill="#0C1014"/>
</g>
<defs>
<clipPath id="clip0">
<rect x="32.0688" y="8" width="81.9311" height="12" fill="white"/>
</clipPath>
<clipPath id="clip1">
<rect width="24.0517" height="24" fill="white"/>
</clipPath>
</defs>
</svg>
