<svg width="82" height="12" viewBox="0 0 82 12" fill="none" xmlns="http://www.w3.org/2000/svg">
<g clip-path="url(#clip0)">
<path d="M9.92322 4.46213C9.92322 7.37261 7.65285 8.71078 5.20306 8.71078H3.38124V11.7842H0.0688477V0.215759H5.20306C7.65975 0.215759 9.92322 1.57001 9.92322 4.46213ZM6.47281 4.46213C6.47281 3.37184 6.02655 2.95868 5.03283 2.95868H3.37664V5.96786H5.03283C6.03115 5.96786 6.47741 5.57077 6.47741 4.46213H6.47281Z" fill="#0C1014"/>
<path d="M21.7144 11.7842H17.5739L14.7262 8.44682V11.7842H11.4115V0.215759H16.2168C18.7172 0.215759 20.6724 1.88446 20.6724 4.08339C20.6724 5.98393 19.7523 7.04208 18.0708 7.75592L21.7144 11.7842ZM17.2588 4.36342C17.2588 3.44529 16.7987 2.95868 15.8786 2.95868H14.7285V5.96786H15.7705C16.7964 5.96786 17.2588 5.58683 17.2588 4.36342Z" fill="#0C1014"/>
<path d="M26.0872 7.70314V11.7842H22.7748V0.215759H30.9063V3.02524H26.0872V4.89365H30.276V7.70314H26.0872Z" fill="#0C1014"/>
<path d="M35.4608 6.00918C35.4608 7.90972 36.7857 9.03443 38.4925 9.03443C39.6581 9.05326 40.813 8.81006 41.8716 8.32288V11.3803C40.7914 11.7978 39.6418 12.0081 38.4833 12C34.8213 12 31.8907 9.40398 31.8907 6C31.8907 2.59602 34.6074 2.84496e-06 38.366 2.84496e-06C39.5689 -0.013133 40.7608 0.22943 41.8624 0.711557V3.76894C40.7655 3.263 39.5743 2.99244 38.366 2.97475C36.5695 2.97475 35.4608 4.11553 35.4608 6.00918Z" fill="#0C1014"/>
<path d="M52.8187 0.215759V3.14001H49.5385V11.7842H46.2261V3.14001H42.9459V0.215759H52.8187Z" fill="#0C1014"/>
<path d="M61.2561 7.70314V11.7842H57.9437V0.215759H66.0867V3.02524H61.2561V4.89365H65.4472V7.70314H61.2561Z" fill="#0C1014"/>
<path d="M70.8023 0.215759V11.7842H67.4899V0.215759H70.8023Z" fill="#0C1014"/>
<path d="M81.9999 0.215759V3.14001H78.7198V11.7842H75.4074V3.14001H72.1272V0.215759H81.9999Z" fill="#0C1014"/>
</g>
<defs>
<clipPath id="clip0">
<rect x="0.0688477" width="81.9311" height="12" fill="white"/>
</clipPath>
</defs>
</svg>
